<?xml version="1.0" encoding="utf-8"?>
<!-- Uploaded to: SVG Repo, www.svgrepo.com, Generator: SVG Repo Mixer Tools -->
<svg fill="#000000" width="800px" height="800px" viewBox="0 0 32 32" version="1.1" xmlns="http://www.w3.org/2000/svg">
<title>award-simple</title>
<path d="M23.25 12.5c0-4.004-3.246-7.25-7.25-7.25s-7.25 3.246-7.25 7.25c0 4.004 3.246 7.25 7.25 7.25v0c4.002-0.004 7.246-3.248 7.25-7.25v-0zM10.25 12.5c0-3.176 2.574-5.75 5.75-5.75s5.75 2.574 5.75 5.75c0 3.176-2.574 5.75-5.75 5.75v0c-3.174-0.003-5.747-2.576-5.75-5.75v-0zM17.207 15.641c0.122 0.089 0.275 0.143 0.44 0.143 0.414 0 0.75-0.336 0.75-0.75 0-0.083-0.013-0.162-0.038-0.237l0.002 0.005-0.462-1.417 1.208-0.877c0.188-0.138 0.308-0.358 0.308-0.606 0-0.414-0.335-0.75-0.75-0.75h-1.492l-0.461-1.417c-0.124-0.276-0.396-0.464-0.713-0.464s-0.589 0.189-0.711 0.459l-0.002 0.005-0.461 1.417h-1.491c-0.414 0-0.75 0.336-0.75 0.75 0 0.248 0.12 0.468 0.306 0.605l0.002 0.001 1.207 0.877-0.461 1.417c-0.024 0.069-0.037 0.15-0.037 0.233 0 0.414 0.336 0.749 0.749 0.749 0.166 0 0.319-0.054 0.443-0.145l-0.002 0.001 1.207-0.876zM15.564 12.626c0.183-0.050 0.335-0.162 0.434-0.313l0.002-0.003c0.101 0.153 0.252 0.266 0.43 0.314l0.005 0.001c-0.105 0.128-0.168 0.292-0.168 0.472 0 0.014 0 0.028 0.001 0.041l-0-0.002c-0.080-0.032-0.172-0.050-0.269-0.050s-0.189 0.018-0.274 0.052l0.005-0.002c0.001-0.012 0.001-0.026 0.001-0.040 0-0.18-0.063-0.345-0.169-0.473l0.001 0.001zM22.881 21.38c2.668-2.077 4.369-5.29 4.369-8.9 0-6.213-5.037-11.25-11.25-11.25s-11.25 5.037-11.25 11.25c0 3.61 1.7 6.822 4.343 8.881l0.025 0.019-2.829 8.38c-0.025 0.072-0.039 0.154-0.039 0.24 0 0.207 0.084 0.394 0.219 0.53l-0-0c0.133 0.138 0.319 0.224 0.525 0.224 0.087 0 0.171-0.015 0.249-0.044l-0.005 0.002 8.763-2.92 8.764 2.92c0.069 0.025 0.148 0.039 0.23 0.039 0.002 0 0.004 0 0.007-0h-0c0.414-0 0.75-0.336 0.75-0.751 0-0.086-0.014-0.168-0.041-0.245l0.002 0.005zM6.25 12.5c0-5.385 4.365-9.75 9.75-9.75s9.75 4.365 9.75 9.75c0 5.385-4.365 9.75-9.75 9.75v0c-5.382-0.006-9.744-4.368-9.75-9.749v-0.001zM16.237 26.289c-0.071-0.024-0.152-0.038-0.237-0.038s-0.166 0.014-0.243 0.040l0.005-0.002-7.57 2.523 2.217-6.564c1.603 0.944 3.532 1.501 5.591 1.501s3.987-0.558 5.643-1.53l-0.052 0.028 2.216 6.564z"></path>
</svg>