<?xml version="1.0" encoding="utf-8"?>
<!-- Uploaded to: SVG Repo, www.svgrepo.com, Generator: SVG Repo Mixer Tools -->
<svg fill="#000000" width="800px" height="800px" viewBox="0 0 32 32" version="1.1" xmlns="http://www.w3.org/2000/svg">
<title>clipboard-list-check</title>
<path d="M26 5.25h-2c-0.414 0-0.75 0.336-0.75 0.75s0.336 0.75 0.75 0.75v0h1.25v22.5h-18.5v-22.5h1.25c0.414 0 0.75-0.336 0.75-0.75s-0.336-0.75-0.75-0.75v0h-2c-0.414 0-0.75 0.336-0.75 0.75v0 24c0 0.414 0.336 0.75 0.75 0.75h20c0.414-0 0.75-0.336 0.75-0.75v0-24c-0-0.414-0.336-0.75-0.75-0.75v0zM23.1 15.3h-7.133c-0.414 0-0.75 0.336-0.75 0.75s0.336 0.75 0.75 0.75h7.133c0.414 0 0.75-0.336 0.75-0.75s-0.336-0.75-0.75-0.75v0zM8.438 17.234l1.010 1.002 0.015 0.006 0.007 0.015c0.131 0.122 0.306 0.197 0.5 0.197 0.202 0 0.385-0.082 0.517-0.214v0l0.021-0.009 0.004-0.009 0.018-0.013 3.028-3.311c0.123-0.133 0.199-0.312 0.199-0.508 0-0.414-0.336-0.75-0.75-0.75-0.22 0-0.418 0.095-0.555 0.246l-0.001 0.001-2.501 2.733-0.455-0.452c-0.135-0.13-0.318-0.21-0.521-0.21-0.414 0-0.75 0.336-0.75 0.75 0 0.204 0.082 0.39 0.214 0.525l-0-0zM16.033 22.145c-0.414 0-0.75 0.336-0.75 0.75s0.336 0.75 0.75 0.75v0h7.133c0.414 0 0.75-0.336 0.75-0.75s-0.336-0.75-0.75-0.75v0zM8.283 22.895c0 0 0 0 0 0 0 1.157 0.938 2.094 2.094 2.094s2.094-0.938 2.094-2.094c0-1.157-0.938-2.094-2.094-2.094-0 0-0 0-0.001 0h0c-1.156 0.002-2.092 0.938-2.094 2.094v0zM11 8.749h10c0.414 0 0.75-0.336 0.75-0.75s-0.336-0.75-0.75-0.75v0h-2.019c0.477-0.616 0.766-1.398 0.769-2.248v-0.001c0-2.071-1.679-3.75-3.75-3.75s-3.75 1.679-3.75 3.75v0c0.003 0.851 0.292 1.633 0.775 2.258l-0.006-0.009h-2.019c-0.414 0-0.75 0.336-0.75 0.75s0.336 0.75 0.75 0.75v0zM16 2.75c1.242 0 2.249 1.007 2.249 2.25s-1.007 2.25-2.25 2.25c-1.242 0-2.249-1.007-2.25-2.249v-0c0.002-1.242 1.008-2.248 2.25-2.25h0z"></path>
</svg>